<svg width="25" height="25" viewBox="0 0 25 25" fill="none" xmlns="http://www.w3.org/2000/svg">
<path d="M11.8028 25.0011H7.38403C2.27916 25.0011 0 22.7219 0 17.617V13.1982C0 8.09337 2.27916 5.81421 7.38403 5.81421H10.8725C11.3493 5.81421 11.7447 6.20957 11.7447 6.68634C11.7447 7.1631 11.3493 7.55847 10.8725 7.55847H7.38403C3.22106 7.55847 1.74426 9.03527 1.74426 13.1982V17.617C1.74426 21.78 3.22106 23.2568 7.38403 23.2568H11.8028C15.9658 23.2568 17.4426 21.78 17.4426 17.617V14.1285C17.4426 13.6517 17.8379 13.2564 18.3147 13.2564C18.7915 13.2564 19.1868 13.6517 19.1868 14.1285V17.617C19.1868 22.7219 16.9077 25.0011 11.8028 25.0011Z" fill="#A4FFAF"/>
<path d="M18.314 15.0005H14.5929C11.3253 15.0005 9.99973 13.6749 9.99973 10.4073V6.68618C9.99973 6.33733 10.209 6.01173 10.5346 5.88382C10.8602 5.74428 11.2323 5.82568 11.4881 6.06987L18.9303 13.5121C19.1745 13.7562 19.2559 14.14 19.1164 14.4656C18.9885 14.7912 18.6629 15.0005 18.314 15.0005ZM11.744 8.79092V10.4073C11.744 12.7213 12.2789 13.2562 14.5929 13.2562H16.2093L11.744 8.79092Z" fill="#A4FFAF"/>
<path d="M16.686 1.74426H12.0347C11.5579 1.74426 11.1625 1.34889 11.1625 0.872129C11.1625 0.395365 11.5579 0 12.0347 0H16.686C17.1628 0 17.5582 0.395365 17.5582 0.872129C17.5582 1.34889 17.1628 1.74426 16.686 1.74426Z" fill="#A4FFAF"/>
<path d="M6.68632 5.23278C6.20956 5.23278 5.81419 4.83741 5.81419 4.36065C5.81419 1.95357 7.76776 0 10.1748 0H13.2215C13.6982 0 14.0936 0.395365 14.0936 0.872129C14.0936 1.34889 13.6982 1.74426 13.2215 1.74426H10.1748C8.73292 1.74426 7.55845 2.91873 7.55845 4.36065C7.55845 4.83741 7.16309 5.23278 6.68632 5.23278Z" fill="#A4FFAF"/>
<path d="M20.8603 19.1867C20.3835 19.1867 19.9882 18.7913 19.9882 18.3145C19.9882 17.8378 20.3835 17.4424 20.8603 17.4424C22.1859 17.4424 23.2558 16.361 23.2558 15.047V7.849C23.2558 7.37223 23.6511 6.97687 24.1279 6.97687C24.6046 6.97687 25 7.37223 25 7.849V15.047C25 17.3261 23.1395 19.1867 20.8603 19.1867Z" fill="#A4FFAF"/>
<path d="M24.1285 8.72128H20.64C17.5469 8.72128 16.2794 7.45379 16.2794 4.36064V0.872122C16.2794 0.52327 16.4887 0.197675 16.8143 0.0697628C17.1399 -0.0697779 17.512 0.0116208 17.7678 0.255817L24.7448 7.23285C24.989 7.47705 25.0704 7.86078 24.9309 8.18638C24.803 8.51197 24.4774 8.72128 24.1285 8.72128ZM18.0236 2.97686V4.36064C18.0236 6.48863 18.512 6.97703 20.64 6.97703H22.0238L18.0236 2.97686Z" fill="#A4FFAF"/>
</svg>
